# xmcd CD database file
#
# Track frame offsets:
#	150
#	12777
#	20845
#	35315
#	48350
#	59402
#	71302
#	86800
#	100670
#	117207
#	133520
#	143600
#	157370
#	167370
#
# Disc length: 2443 seconds
#
# Revision: 0
# Processed by: cddbd v1.5PL3 Copyright (c) Steve Scherf et al.
# Submitted via: CDex 1.50
#
DISCID=b309890e
DTITLE=Fred Poulet - Mes Plus Grands Succes
DYEAR=1995
DGENRE=Chanson
TTITLE0=La Nuit
TTITLE1=A L'Italienne
TTITLE2=Femme Au Foyer
TTITLE3=Souris
TTITLE4=Pas Drole
TTITLE5=Aldo
TTITLE6=Les Anges
TTITLE7=J'aime Venir M'ennuyer Dans Ta Chambre A Coucher
TTITLE8=La Mer
TTITLE9=Numero
TTITLE10=J'me Casse
TTITLE11=Moulineaux
TTITLE12=Reglisse
TTITLE13=J'attendrai
EXTD=YEAR: 1995
EXTT0=
EXTT1=
EXTT2=
EXTT3=
EXTT4=
EXTT5=
EXTT6=
EXTT7=
EXTT8=
EXTT9=
EXTT10=
EXTT11=
EXTT12=
EXTT13=
PLAYORDER=
